<?xml version="1.0" encoding="UTF-8"?>
<svg xmlns="http://www.w3.org/2000/svg" width="167" height="40" viewBox="0 0 167 40" role="img" aria-label="AIMEDIArt.com — Art-mediation with AI">
  <rect x="0" y="0" width="40" height="40" rx="6" fill="#ca2b2b" />
  <g transform="translate(8, 8)">
    <path
      d="M19 14c1.49-1.46 3-3.21 3-5.5A5.5 5.5 0 0 0 16.5 3c-1.76 0-3 .5-4.5 2-1.5-1.5-2.74-2-4.5-2A5.5 5.5 0 0 0 2 8.5c0 2.3 1.5 4.05 3 5.5l7 7Z"
      fill="none"
      stroke="#ffffff"
      stroke-width="2.25"
      stroke-linecap="round"
      stroke-linejoin="round"
    />
  </g>
  <path d="M51.02 15L48.38 15L52.36 3.36L55.48 3.36L59.56 15L56.91 15L56.02 12.30L51.88 12.30L51.02 15M52.48 10.43L55.40 10.43L55.05 9.38Q54.71 8.30 54.37 7Q54.14 6.16 53.90 5.23Q53.66 6.18 53.46 7.02Q53.13 8.32 52.81 9.38L52.48 10.43M60.60 3.36L62.98 3.36L62.98 15L60.60 15L60.60 3.36M67.06 15L64.69 15L64.69 3.36L68.35 3.36L70.24 8.70Q70.36 9.08 70.51 9.67Q70.66 10.27 70.82 10.95Q70.97 11.63 71.11 12.26Q71.24 11.63 71.39 10.97Q71.54 10.28 71.70 9.68Q71.85 9.08 71.97 8.70L73.83 3.36L77.50 3.36L77.50 15L75.10 15L75.10 9.52Q75.10 9.13 75.11 8.56Q75.12 7.99 75.14 7.33Q75.16 6.67 75.18 6Q75.18 5.70 75.19 5.41Q75.11 5.74 75.02 6.08Q74.84 6.77 74.66 7.42Q74.47 8.07 74.31 8.61Q74.15 9.16 74.03 9.52L72.10 15L70.09 15L68.13 9.52Q68.01 9.16 67.85 8.62Q67.68 8.09 67.50 7.44Q67.32 6.79 67.13 6.09Q67.05 5.80 66.97 5.50Q66.97 5.73 66.98 5.97Q67 6.63 67.02 7.30Q67.04 7.97 67.05 8.54Q67.06 9.12 67.06 9.52L67.06 15M87 15L79.20 15L79.20 3.36L86.99 3.36L86.99 5.34L81.58 5.34L81.58 8.15L86.58 8.15L86.58 10.09L81.58 10.09L81.58 13.02L87 13.02L87 15M92.61 15L88.52 15L88.52 3.36L92.65 3.36Q94.40 3.36 95.66 4.06Q96.92 4.76 97.60 6.06Q98.28 7.36 98.28 9.17Q98.28 10.99 97.60 12.30Q96.92 13.60 95.65 14.30Q94.38 15 92.61 15M90.90 5.41L90.90 12.95L92.49 12.95Q93.62 12.95 94.38 12.55Q95.14 12.15 95.52 11.31Q95.91 10.48 95.91 9.17Q95.91 7.88 95.52 7.04Q95.13 6.21 94.38 5.81Q93.63 5.41 92.51 5.41L90.90 5.41M99.67 3.36L102.05 3.36L102.05 15L99.67 15L99.67 3.36M105.72 15L103.09 15L107.07 3.36L110.19 3.36L114.27 15L111.62 15L110.72 12.30L106.59 12.30L105.72 15M107.19 10.43L110.11 10.43L109.76 9.38Q109.42 8.30 109.08 7Q108.85 6.16 108.61 5.23Q108.37 6.18 108.17 7.02Q107.84 8.32 107.52 9.38L107.19 10.43M117.60 15L115.25 15L115.25 6.27L117.52 6.27L117.52 7.79L117.61 7.79Q117.86 6.98 118.42 6.56Q118.99 6.15 119.72 6.15Q119.90 6.15 120.11 6.17Q120.32 6.19 120.48 6.23L120.48 8.32Q120.32 8.27 120.03 8.23Q119.73 8.20 119.47 8.20Q118.93 8.20 118.50 8.43Q118.07 8.66 117.84 9.07Q117.60 9.48 117.60 10.03L117.60 15M124.07 6.27L125.71 6.27L125.71 8.05L124.07 8.05L124.07 12.45Q124.07 12.86 124.26 13.06Q124.44 13.26 124.87 13.26Q125 13.26 125.25 13.22Q125.49 13.19 125.61 13.16L125.95 14.91Q125.56 15.03 125.17 15.08Q124.78 15.13 124.43 15.13Q123.12 15.13 122.42 14.48Q121.73 13.84 121.73 12.65L121.73 8.05L120.53 8.05L120.53 6.27L121.73 6.27L121.73 4.19L124.07 4.19L124.07 6.27M128.50 15.15Q127.93 15.15 127.54 14.76Q127.15 14.38 127.15 13.80Q127.15 13.23 127.54 12.85Q127.93 12.46 128.50 12.46Q129.07 12.46 129.46 12.85Q129.85 13.23 129.85 13.80Q129.85 14.38 129.46 14.76Q129.07 15.15 128.50 15.15M135.68 15.17Q134.36 15.17 133.40 14.61Q132.45 14.04 131.93 13.03Q131.41 12.02 131.41 10.67Q131.41 9.31 131.93 8.30Q132.45 7.29 133.40 6.72Q134.36 6.16 135.68 6.16Q136.45 6.16 137.11 6.36Q137.77 6.56 138.27 6.94Q138.78 7.31 139.11 7.85Q139.44 8.39 139.56 9.06L137.38 9.47Q137.31 9.13 137.16 8.86Q137.02 8.59 136.80 8.39Q136.59 8.20 136.32 8.10Q136.04 8 135.70 8Q135.08 8 134.65 8.34Q134.23 8.67 134.01 9.27Q133.80 9.88 133.80 10.66Q133.80 11.44 134.01 12.04Q134.23 12.64 134.65 12.98Q135.08 13.33 135.70 13.33Q136.04 13.33 136.32 13.22Q136.60 13.12 136.82 12.92Q137.04 12.72 137.19 12.44Q137.34 12.16 137.40 11.80L139.58 12.20Q139.45 12.90 139.12 13.44Q138.80 13.98 138.29 14.38Q137.78 14.77 137.12 14.97Q136.46 15.17 135.68 15.17M144.69 15.17Q143.38 15.17 142.42 14.61Q141.46 14.04 140.94 13.03Q140.42 12.02 140.42 10.67Q140.42 9.31 140.94 8.30Q141.46 7.29 142.42 6.72Q143.38 6.16 144.69 6.16Q146.01 6.16 146.97 6.72Q147.93 7.29 148.45 8.30Q148.97 9.31 148.97 10.67Q148.97 12.02 148.45 13.03Q147.93 14.04 146.97 14.61Q146.01 15.17 144.69 15.17M144.69 13.33Q145.32 13.33 145.74 12.98Q146.16 12.63 146.37 12.03Q146.58 11.42 146.58 10.66Q146.58 9.89 146.37 9.29Q146.16 8.69 145.74 8.34Q145.32 8 144.69 8Q144.07 8 143.65 8.34Q143.23 8.69 143.02 9.29Q142.81 9.89 142.81 10.66Q142.81 11.42 143.02 12.03Q143.23 12.63 143.65 12.98Q144.07 13.33 144.69 13.33M152.54 15L150.20 15L150.20 6.27L152.37 6.27L152.47 7.96Q152.65 7.48 152.92 7.13Q153.31 6.62 153.84 6.38Q154.37 6.13 154.96 6.13Q155.90 6.13 156.48 6.73Q156.94 7.20 157.21 8.09Q157.40 7.57 157.70 7.20Q158.14 6.66 158.74 6.39Q159.35 6.13 160.01 6.13Q160.82 6.13 161.45 6.48Q162.07 6.84 162.44 7.50Q162.80 8.16 162.80 9.11L162.80 15L160.46 15L160.46 9.55Q160.46 8.81 160.06 8.45Q159.65 8.09 159.07 8.09Q158.63 8.09 158.31 8.29Q157.98 8.48 157.81 8.82Q157.63 9.16 157.63 9.63L157.63 15L155.36 15L155.36 9.49Q155.36 8.85 154.99 8.47Q154.61 8.09 154 8.09Q153.59 8.09 153.26 8.28Q152.93 8.47 152.74 8.83Q152.54 9.20 152.54 9.72" fill="#ca2b2b" />
  <path d="M49.49 32L47.79 32L51.48 24.72L53.43 24.72L54.77 32L53.18 32L52.90 30.31L50.31 30.31L49.49 32M50.88 29.14L52.70 29.14L52.59 28.49Q52.50 27.83 52.41 27.01Q52.36 26.48 52.30 25.89Q52.07 26.46 51.85 26.99Q51.52 27.81 51.20 28.49L50.88 29.14M57.11 32L55.64 32L56.54 26.54L57.96 26.54L57.81 27.49L57.87 27.49Q58.10 26.99 58.49 26.73Q58.89 26.47 59.35 26.47Q59.46 26.47 59.59 26.48Q59.72 26.49 59.82 26.52L59.60 27.83Q59.50 27.79 59.32 27.77Q59.13 27.75 58.98 27.75Q58.64 27.75 58.35 27.90Q58.06 28.04 57.87 28.30Q57.68 28.55 57.62 28.89L57.11 32M62.32 26.54L63.33 26.54L63.15 27.66L62.13 27.66L61.68 30.40Q61.63 30.67 61.73 30.79Q61.83 30.91 62.09 30.91Q62.17 30.91 62.33 30.89Q62.48 30.87 62.57 30.85L62.59 31.95Q62.34 32.02 62.09 32.05Q61.85 32.08 61.62 32.08Q60.80 32.08 60.43 31.68Q60.07 31.28 60.19 30.53L60.67 27.66L59.91 27.66L60.09 26.54L60.85 26.54L61.07 25.24L62.53 25.24L62.32 26.54M64.04 28.42L67.36 28.42L67.16 29.59L63.85 29.59L64.04 28.42M69.53 32L68.07 32L68.98 26.54L70.33 26.54L70.22 27.54Q70.38 27.24 70.57 27.04Q70.87 26.74 71.20 26.60Q71.54 26.46 71.88 26.46Q72.30 26.46 72.58 26.64Q72.85 26.82 73 27.17Q73.09 27.39 73.14 27.68Q73.31 27.33 73.55 27.09Q73.87 26.77 74.26 26.61Q74.65 26.46 75.05 26.46Q75.56 26.46 75.94 26.69Q76.31 26.92 76.48 27.34Q76.65 27.77 76.54 28.37L75.94 32L74.48 32L75.06 28.55Q75.11 28.24 75.04 28.04Q74.96 27.85 74.80 27.77Q74.64 27.68 74.41 27.68Q74.11 27.68 73.87 27.82Q73.63 27.95 73.47 28.17Q73.31 28.40 73.26 28.69L72.71 32L71.30 32L71.88 28.51Q71.95 28.10 71.76 27.89Q71.58 27.68 71.24 27.68Q70.97 27.68 70.72 27.81Q70.47 27.94 70.30 28.18Q70.12 28.42 70.07 28.75L69.53 32M79.72 32.12Q78.99 32.12 78.46 31.85Q77.94 31.58 77.65 31.09Q77.37 30.59 77.37 29.89Q77.37 29.20 77.60 28.58Q77.82 27.96 78.24 27.48Q78.66 27 79.24 26.72Q79.82 26.45 80.51 26.45Q81.09 26.45 81.54 26.64Q82 26.83 82.26 27.19Q82.53 27.54 82.53 28.04Q82.53 28.55 82.23 28.88Q81.93 29.21 81.35 29.39Q80.77 29.57 79.92 29.65Q79.40 29.69 78.79 29.71Q78.78 29.82 78.78 29.92Q78.78 30.23 78.88 30.48Q78.97 30.73 79.20 30.87Q79.43 31.01 79.83 31.01Q80.24 31.01 80.56 30.84Q80.88 30.67 81.02 30.36L82.34 30.54Q82.07 31.25 81.37 31.68Q80.68 32.12 79.72 32.12M78.94 28.83Q79.34 28.82 79.65 28.80Q80.25 28.77 80.58 28.69Q80.91 28.61 81.03 28.47Q81.16 28.33 81.16 28.11Q81.16 27.85 80.95 27.70Q80.73 27.55 80.36 27.55Q79.88 27.55 79.57 27.80Q79.26 28.05 79.09 28.43Q79.01 28.62 78.94 28.83M85.15 32.09Q84.32 32.09 83.80 31.53Q83.27 30.97 83.27 29.92Q83.27 29.29 83.44 28.68Q83.62 28.06 83.96 27.57Q84.30 27.07 84.79 26.77Q85.29 26.47 85.92 26.47Q86.40 26.47 86.70 26.64Q87 26.80 87.16 27.04Q87.31 27.28 87.38 27.50L87.43 27.50L87.89 24.72L89.35 24.72L88.15 32L86.71 32L86.86 31.13L86.78 31.13Q86.65 31.38 86.43 31.59Q86.21 31.81 85.90 31.95Q85.58 32.09 85.15 32.09M85.64 30.92Q86.03 30.92 86.33 30.72Q86.62 30.52 86.82 30.19Q87.02 29.86 87.12 29.47Q87.22 29.08 87.22 28.71Q87.22 28.22 87 27.93Q86.78 27.64 86.34 27.64Q85.95 27.64 85.66 27.84Q85.36 28.04 85.17 28.37Q84.97 28.70 84.87 29.08Q84.77 29.47 84.77 29.84Q84.77 30.33 84.98 30.62Q85.20 30.92 85.64 30.92M90.87 32L89.40 32L90.30 26.54L91.77 26.54L90.87 32M91.15 25.83Q90.82 25.83 90.62 25.61Q90.43 25.39 90.48 25.08Q90.53 24.76 90.80 24.54Q91.08 24.32 91.40 24.32Q91.74 24.32 91.94 24.54Q92.14 24.76 92.08 25.08Q92.03 25.39 91.76 25.61Q91.49 25.83 91.15 25.83M94.09 32.09Q93.47 32.09 93.02 31.77Q92.57 31.44 92.38 30.81Q92.18 30.18 92.34 29.28Q92.49 28.34 92.90 27.72Q93.30 27.10 93.86 26.79Q94.42 26.47 95.02 26.47Q95.49 26.47 95.77 26.63Q96.05 26.78 96.20 27.01Q96.35 27.24 96.41 27.46L96.46 27.46L96.61 26.54L98.07 26.54L97.17 32L95.73 32L95.87 31.13L95.80 31.13Q95.66 31.35 95.43 31.57Q95.20 31.79 94.87 31.94Q94.54 32.09 94.09 32.09M94.74 30.92Q95.12 30.92 95.41 30.71Q95.71 30.50 95.91 30.13Q96.11 29.76 96.19 29.28Q96.27 28.78 96.20 28.41Q96.12 28.04 95.89 27.84Q95.66 27.64 95.29 27.64Q94.90 27.64 94.60 27.85Q94.30 28.06 94.11 28.43Q93.92 28.80 93.84 29.28Q93.76 29.75 93.83 30.13Q93.91 30.50 94.14 30.71Q94.36 30.92 94.74 30.92M101.02 26.54L102.04 26.54L101.86 27.66L100.84 27.66L100.38 30.40Q100.34 30.67 100.44 30.79Q100.53 30.91 100.80 30.91Q100.88 30.91 101.03 30.89Q101.19 30.87 101.27 30.85L101.30 31.95Q101.05 32.02 100.80 32.05Q100.55 32.08 100.33 32.08Q99.50 32.08 99.14 31.68Q98.77 31.28 98.89 30.53L99.37 27.66L98.62 27.66L98.80 26.54L99.56 26.54L99.77 25.24L101.24 25.24L101.02 26.54M103.56 32L102.10 32L103 26.54L104.46 26.54L103.56 32M103.85 25.83Q103.52 25.83 103.32 25.61Q103.12 25.39 103.17 25.08Q103.22 24.76 103.50 24.54Q103.77 24.32 104.10 24.32Q104.44 24.32 104.63 24.54Q104.83 24.76 104.78 25.08Q104.73 25.39 104.46 25.61Q104.18 25.83 103.85 25.83M107.32 32.11Q106.57 32.11 106.06 31.82Q105.54 31.54 105.27 31.03Q104.99 30.52 104.99 29.83Q104.99 29.17 105.20 28.57Q105.41 27.97 105.81 27.49Q106.21 27.02 106.78 26.75Q107.36 26.47 108.09 26.47Q108.82 26.47 109.34 26.75Q109.86 27.03 110.13 27.55Q110.41 28.06 110.41 28.75Q110.41 29.41 110.20 30.02Q109.99 30.62 109.59 31.09Q109.19 31.56 108.62 31.83Q108.04 32.11 107.32 32.11M107.37 30.96Q107.78 30.96 108.07 30.74Q108.37 30.52 108.56 30.17Q108.75 29.83 108.84 29.44Q108.94 29.05 108.94 28.71Q108.94 28.39 108.84 28.14Q108.74 27.90 108.54 27.76Q108.34 27.63 108.03 27.63Q107.62 27.63 107.33 27.84Q107.03 28.06 106.84 28.40Q106.65 28.74 106.55 29.13Q106.46 29.51 106.46 29.86Q106.46 30.35 106.69 30.65Q106.91 30.96 107.37 30.96M112.93 28.88L112.41 32L110.94 32L111.85 26.54L113.23 26.54L113.08 27.58Q113.36 27.10 113.74 26.82Q114.22 26.47 114.88 26.47Q115.47 26.47 115.87 26.73Q116.27 26.99 116.43 27.46Q116.60 27.94 116.49 28.58L115.92 32L114.46 32L115 28.73Q115.09 28.22 114.87 27.96Q114.65 27.70 114.22 27.70Q113.89 27.70 113.62 27.84Q113.35 27.99 113.17 28.26Q112.99 28.52 112.93 28.88M122.17 32L120.68 32L119.97 26.54L121.51 26.54L121.65 28.56Q121.68 29.10 121.72 29.73Q121.74 30.17 121.75 30.67Q121.92 30.19 122.09 29.75Q122.35 29.11 122.57 28.56L123.40 26.54L124.75 26.54L124.90 28.56Q124.94 29.10 124.98 29.73Q125.01 30.17 125.03 30.66Q125.19 30.18 125.35 29.75Q125.58 29.12 125.80 28.56L126.61 26.54L128.17 26.54L125.65 32L124.16 32L123.90 29.90Q123.87 29.59 123.84 29.21Q123.82 28.83 123.80 28.43Q123.79 28.32 123.79 28.22Q123.75 28.32 123.71 28.42Q123.56 28.82 123.41 29.21Q123.26 29.59 123.12 29.90L122.17 32M129.51 32L128.04 32L128.95 26.54L130.41 26.54L129.51 32M129.80 25.83Q129.46 25.83 129.27 25.61Q129.07 25.39 129.12 25.08Q129.17 24.76 129.45 24.54Q129.72 24.32 130.05 24.32Q130.38 24.32 130.58 24.54Q130.78 24.76 130.72 25.08Q130.68 25.39 130.40 25.61Q130.13 25.83 129.80 25.83M133.36 26.54L134.37 26.54L134.19 27.66L133.17 27.66L132.72 30.40Q132.67 30.67 132.77 30.79Q132.87 30.91 133.13 30.91Q133.21 30.91 133.37 30.89Q133.52 30.87 133.61 30.85L133.63 31.95Q133.38 32.02 133.13 32.05Q132.89 32.08 132.66 32.08Q131.84 32.08 131.47 31.68Q131.11 31.28 131.23 30.53L131.71 27.66L130.95 27.66L131.13 26.54L131.89 26.54L132.11 25.24L133.57 25.24L133.36 26.54M136.41 28.84L135.89 32L134.43 32L135.63 24.72L137.07 24.72L136.59 27.59Q136.75 27.33 136.93 27.13Q137.20 26.81 137.56 26.64Q137.92 26.47 138.38 26.47Q138.94 26.47 139.34 26.72Q139.74 26.97 139.91 27.43Q140.08 27.89 139.98 28.53L139.41 32L137.94 32L138.47 28.78Q138.56 28.27 138.34 27.98Q138.12 27.70 137.66 27.70Q137.35 27.70 137.09 27.83Q136.83 27.97 136.65 28.22Q136.47 28.47 136.41 28.84M144.34 32L142.63 32L146.33 24.72L148.28 24.72L149.62 32L148.02 32L147.75 30.31L145.16 30.31L144.34 32M145.73 29.14L147.55 29.14L147.44 28.49Q147.35 27.83 147.26 27.01Q147.20 26.48 147.15 25.89Q146.92 26.46 146.70 26.99Q146.36 27.81 146.05 28.49L145.73 29.14M151.73 24.72L153.21 24.72L152.01 32L150.52 32" fill="#ca2b2b" />
</svg>
